<?xml version="1.0" encoding="utf-8"?>
<!-- Generator: Adobe Illustrator 25.0.1, SVG Export Plug-In . SVG Version: 6.00 Build 0)  -->
<svg version="1.1" id="Layer_1" xmlns="http://www.w3.org/2000/svg" xmlns:xlink="http://www.w3.org/1999/xlink" x="0px" y="0px"
	 viewBox="0 0 1366 768" style="enable-background:new 0 0 1366 768;" xml:space="preserve">
<style type="text/css">
	.st0{fill:#F2F2F2;}
	.st1{fill:url(#SVGID_1_);}
	.st2{fill:url(#SVGID_2_);}
	.st3{fill:#7D1B23;}
	.st4{fill:url(#SVGID_3_);}
	.st5{fill:url(#SVGID_4_);}
	.st6{fill:url(#SVGID_5_);}
	.st7{fill:url(#SVGID_6_);}
	.st8{fill:url(#SVGID_7_);}
</style>
<ellipse class="st0" cx="1676.45" cy="735.87" rx="195.57" ry="179.75"/>
<g>
	
		<linearGradient id="SVGID_1_" gradientUnits="userSpaceOnUse" x1="1715.7715" y1="627.2479" x2="1629.6266" y2="749.2828" gradientTransform="matrix(1 0 -0.2463 1 180.5989 0)">
		<stop  offset="0.0805" style="stop-color:#F26D79"/>
		<stop  offset="0.4055" style="stop-color:#D94A56"/>
	</linearGradient>
	<path class="st1" d="M1756.1,691.96c-11.29,45.84-44.66,76.75-96.44,83c-18.51,2.23-42.01-0.34-54.43,0
		c-32.39,0.89-0.37-39.95,2.57-83c3.09-45.13,50.78-83,92.75-83S1767.39,646.12,1756.1,691.96z"/>
	
		<linearGradient id="SVGID_2_" gradientUnits="userSpaceOnUse" x1="1611.2075" y1="757.9407" x2="1613.2444" y2="819.6667" gradientTransform="matrix(1 0 -0.2463 1 180.5989 0)">
		<stop  offset="0.141" style="stop-color:#D94A56"/>
		<stop  offset="0.3869" style="stop-color:#DC4E5A"/>
		<stop  offset="0.6306" style="stop-color:#E45A66"/>
		<stop  offset="0.8664" style="stop-color:#F26D79"/>
	</linearGradient>
	<polygon class="st2" points="1599.22,841 1570.22,841 1610.62,677.01 1639.04,679.34 	"/>
	<path class="st0" d="M1724.63,694.59c-13.89,36.88-43.97,45.52-55.74,48.34c-11.83,2.84-28.47,3.37-38.82,2.8
		c-9.34-0.51-9.72,2.55-7.02-8.43c8.05-32.68,8.87-36.01,12.33-50.04c7.58-30.76,30.8-48.38,58.97-48.38
		C1722.52,638.9,1736.43,663.27,1724.63,694.59z"/>
	<path class="st3" d="M1744.34,628.02c0,0,1.37,20.36-4.62,37.34c-6.91,19.57-14.91,30.66-14.91,30.66s3.2-10.07,3.63-15.33
		c0.38-4.67,1.36-10.76-0.25-18c-1.11-4.97-3.79-7.84-3.79-7.84s8.56-8.61,12.94-14.96
		C1741.71,633.53,1744.34,628.02,1744.34,628.02z"/>
	
		<linearGradient id="SVGID_3_" gradientUnits="userSpaceOnUse" x1="1680.6506" y1="765.8279" x2="1698.7996" y2="691.6083" gradientTransform="matrix(1 0 -0.2463 1 180.5989 0)">
		<stop  offset="0" style="stop-color:#7D1B23"/>
		<stop  offset="0.8612" style="stop-color:#7D1B23"/>
	</linearGradient>
	<path class="st4" d="M1708.42,676c0,0-16.16,0.67-23.44,4.01c-7.28,3.34-16.76,8.76-26.95,22.53
		c-12.13,16.4-16.11,39.21-9.25,55.48c6.86,16.27,23.91,16.66,31.57,16.79c8.61,0.14,15.93,0.18,21.74,0.18
		c8.72,0,17.58-6.85,20.13-15.56l0.1-0.34c2.73-9.34-2.83-17.13-12.19-17.08l-20.43,0.11c-3.79,0.02-7.17-1.24-9.49-3.65
		c-2.8-2.93-5.16-7.62-2.07-14.15c5.24-11.08,9.94-15.4,27.32-16.09c4.08-0.16,7.87,0.31,11.41,0.41
		c9.31,0.26,18.86-7.43,20.89-16.81l0,0c1.91-8.82-3.59-15.83-12.41-15.83H1708.42z"/>
	
		<linearGradient id="SVGID_4_" gradientUnits="userSpaceOnUse" x1="1710.4213" y1="843.0679" x2="1710.8232" y2="805.3917" gradientTransform="matrix(1 0 -0.2463 1 180.5989 0)">
		<stop  offset="0" style="stop-color:#D94A56"/>
		<stop  offset="1" style="stop-color:#7D1B23"/>
	</linearGradient>
	<polygon class="st5" points="1728.44,841 1639.66,841 1647.29,810 1736.08,810 	"/>
	<polygon class="st3" points="1737.63,775 1676.45,775 1684.58,742 1745.76,742 	"/>
	
		<linearGradient id="SVGID_5_" gradientUnits="userSpaceOnUse" x1="1754.3759" y1="839.119" x2="1751.8148" y2="800.2218" gradientTransform="matrix(1 0 -0.2463 1 180.5989 0)">
		<stop  offset="0" style="stop-color:#D94A56"/>
		<stop  offset="0.8612" style="stop-color:#7D1B23"/>
	</linearGradient>
	<path class="st6" d="M1742.81,742c0,0,15.97,0.68,21.65,4.04c5.68,3.37,12.56,8.84,15.99,22.72c4.09,16.54-3.23,39.56-18.24,55.97
		c-15.01,16.41-28.61,16.26-44.03,16.25c-8.72,0-14.21-1.96-20.08-1.96c-8.79,0-12.43-4.09-10.67-12.88l0.07-0.35
		c1.88-9.42,12.86-15.85,22.28-15.8l17.69,0.25c3.81,0.02,9.22-2.8,12.75-5.24c4.28-2.95,8.99-7.69,9.12-14.27
		c0.23-11.18-2.38-15.54-19.56-16.23c-4.04-0.16-8.1,0.32-11.71,0.41c-9.52,0.26-15.34-7.49-12.72-16.95v0
		c2.46-8.89,11.49-15.97,20.39-15.97H1742.81z"/>
	
		<linearGradient id="SVGID_6_" gradientUnits="userSpaceOnUse" x1="1618.1642" y1="768.1592" x2="1735.4889" y2="678.1981" gradientTransform="matrix(1 0 -0.2463 1 180.5989 0)">
		<stop  offset="0.141" style="stop-color:#D94A56"/>
		<stop  offset="0.4322" style="stop-color:#DC4E5A"/>
		<stop  offset="0.7208" style="stop-color:#E45A66"/>
		<stop  offset="1" style="stop-color:#F26D79"/>
	</linearGradient>
	<path class="st7" d="M1743.22,628.02c0,0,4.91,32.44-20.97,73.96c-18.09,29.03-29.9,36.77-51.04,41.86
		c-21.14,5.08-27.39,3.43-53.8,3.88c-12.56,0.22-31.26,28.16-31.26,28.16s28.88-0.09,61.24,0c20.21,0.06,50.2-10.55,60.97-17.51
		c14.81-9.58,36.75-32.63,41.34-50.39c4.21-16.29,8.69-20.36,7.53-44.36C1756.18,642.12,1743.22,628.02,1743.22,628.02z"/>
	
		<linearGradient id="SVGID_7_" gradientUnits="userSpaceOnUse" x1="1743.3204" y1="697.1305" x2="1692.0532" y2="658.9712" gradientTransform="matrix(1 0 -0.2463 1 180.5989 0)">
		<stop  offset="0" style="stop-color:#D94A56"/>
		<stop  offset="0.6597" style="stop-color:#7D1B23"/>
	</linearGradient>
	<polygon class="st8" points="1785.63,709 1700.48,709 1708.61,676 1793.76,676 	"/>
</g>
</svg>
